<svg width="31" height="48" xmlns="http://www.w3.org/2000/svg">

 <g>
  <title>background</title>
  <rect fill="none" id="canvas_background" height="402" width="582" y="-1" x="-1"/>
 </g>
 <g>
  <title>Layer 1</title>
  <path stroke="#cc5d1d" id="svg_1" fill="white" d="m5.63751,47.7888c-0.77703,-0.3658 -1.1103,-1.2932 -0.74474,-2.0708c0,-0.0008 0.09015,-0.1915 0.25681,-0.5623c0.16586,-0.3715 0.40572,-0.9155 0.69313,-1.5963c0.57489,-1.3635 1.34365,-3.2778 2.11024,-5.4657c1.53758,-4.3662 3.04325,-9.8698 3.03255,-14.066c0,-0.4481 -0.0159,-0.8799 -0.0499,-1.2925c-0.2712,-3.5092 -2.28464,-7.9152 -4.52207,-11.6451c-2.22847,-3.74029 -4.64125,-6.84576 -5.58712,-8.01969c-0.27066,-0.33607 -0.41392,-0.50526 -0.41467,-0.50607c-0.55474,-0.65591 -0.4726,-1.63811 0.18356,-2.19259c0.65609,-0.55522 1.63669,-0.47301 2.19143,0.18365c0.02809,0.03401 2.60048,3.07818 5.28859,7.30286c2.67848,4.24144 5.52188,9.59914 5.95908,14.62224c0.041,0.5068 0.0604,1.0234 0.0604,1.5472c-0.0104,4.8827 -1.6255,10.5553 -3.2074,15.0959c-1.58755,4.53 -3.16638,7.8879 -3.18082,7.9198c-0.26496,0.5638 -0.82405,0.8939 -1.40762,0.8939c-0.22195,0 -0.44736,-0.0479 -0.66145,-0.1485z"/>
  <path stroke="#cc5d1d" id="svg_2" fill="white" d="m23.2755,47.0431c-0.0136,-0.0319 -1.5934,-3.3891 -3.1808,-7.9198c-1.5829,-4.5406 -3.1979,-10.2132 -3.2086,-15.0951c0,-0.5262 0.0202,-1.0426 0.0615,-1.5479c0.4376,-5.0232 3.2814,-10.3799 5.9596,-14.62147c2.689,-4.22474 5.2606,-7.2689 5.2887,-7.30367l0.0007,0.00075c0.5542,-0.65666 1.5347,-0.73874 2.191,-0.18446c0.6551,0.55522 0.7379,1.53668 0.1833,2.1934c0,0.00075 -0.1442,0.17 -0.4145,0.506c-0.2706,0.33512 -0.6611,0.82836 -1.1319,1.44876c-0.9421,1.24094 -2.2098,2.99175 -3.494,5.01033c-2.5788,4.02306 -5.1785,9.18976 -5.4837,13.20576c-0.0337,0.4141 -0.0512,0.846 -0.0512,1.2924c-0.0072,3.6678 1.1399,8.3485 2.4619,12.3782c1.3179,4.0368 2.7925,7.4502 3.3755,8.7491c0.1659,0.3716 0.2559,0.5622 0.257,0.563c0.3656,0.7776 0.032,1.7042 -0.7454,2.0709c-0.2141,0.1006 -0.4388,0.1485 -0.6605,0.1485c-0.5838,-0.0001 -1.1437,-0.331 -1.4086,-0.8947z"/>
  <path stroke="#cc5d1d" id="svg_3" fill="white" d="m14.1412,13.8236l-4.17826,-7.31849c-0.36114,-0.6329 -0.23701,-1.4271 0.29946,-1.91905l4.1784,-3.83362c0.5948,-0.54647 1.506,-0.54647 2.1007,0l4.1784,3.83362c0.5363,0.4912 0.6604,1.28615 0.2995,1.91905l-4.1785,7.31849c-0.2755,0.4823 -0.7944,0.7835 -1.3496,0.7835c-0.555,0 -1.0745,-0.3013 -1.3501,-0.7835zm-0.8621,-7.78328l2.2117,3.87462l2.2126,-3.87537l-2.2121,-2.02965l-2.2122,2.0304z"/>
 </g>
</svg>